<?xml version="1.0" encoding="UTF-8" standalone="no"?>
<svg
   id="Layer_1"
   data-name="Layer 1"
   viewBox="0 0 16 16"
   version="1.1"
   sodipodi:docname="icon pv temporario.svg"
   inkscape:version="1.3.2 (091e20e, 2023-11-25, custom)"
   xmlns:inkscape="http://www.inkscape.org/namespaces/inkscape"
   xmlns:sodipodi="http://sodipodi.sourceforge.net/DTD/sodipodi-0.dtd"
   xmlns="http://www.w3.org/2000/svg"
   xmlns:svg="http://www.w3.org/2000/svg"
   xmlns:rdf="http://www.w3.org/1999/02/22-rdf-syntax-ns#"
   xmlns:cc="http://creativecommons.org/ns#"
   xmlns:dc="http://purl.org/dc/elements/1.1/">
  <sodipodi:namedview
     id="namedview59"
     pagecolor="#ffffff"
     bordercolor="#000000"
     borderopacity="0.25"
     inkscape:showpageshadow="2"
     inkscape:pageopacity="0.0"
     inkscape:pagecheckerboard="0"
     inkscape:deskcolor="#d1d1d1"
     inkscape:zoom="50.8125"
     inkscape:cx="7.9901599"
     inkscape:cy="8"
     inkscape:window-width="1920"
     inkscape:window-height="1009"
     inkscape:window-x="-8"
     inkscape:window-y="-8"
     inkscape:window-maximized="1"
     inkscape:current-layer="Layer_1" />
  <defs
     id="defs1">
    <style
       id="style1">.cls-1{fill:#f7feff;}.cls-2{fill:#231e2b;}.cls-3{fill:#892727;}.cls-4{fill:#cf6b55;}.cls-5{fill:#b0392e;}</style>
  </defs>
  <title
     id="title1">heart</title>
  <rect
     class="cls-1"
     x="7"
     y="14"
     width="2"
     height="1"
     id="rect1" />
  <rect
     class="cls-1"
     x="9"
     y="13"
     width="1"
     height="1"
     id="rect2" />
  <rect
     class="cls-2"
     x="7"
     y="13"
     width="2"
     height="1"
     id="rect3" />
  <rect
     class="cls-1"
     x="6"
     y="13"
     width="1"
     height="1"
     id="rect4" />
  <rect
     class="cls-1"
     x="10"
     y="12"
     width="1"
     height="1"
     id="rect5" />
  <rect
     class="cls-2"
     x="9"
     y="12"
     width="1"
     height="1"
     id="rect6" />
  <rect
     class="cls-2"
     x="6"
     y="12"
     width="1"
     height="1"
     id="rect7" />
  <rect
     class="cls-1"
     x="5"
     y="12"
     width="1"
     height="1"
     id="rect8" />
  <rect
     class="cls-1"
     x="11"
     y="11"
     width="1"
     height="1"
     id="rect9" />
  <rect
     class="cls-2"
     x="10"
     y="11"
     width="1"
     height="1"
     id="rect10" />
  <polygon
     class="cls-3"
     points="6 11 6 12 7 12 7 13 9 13 9 12 10 12 10 11 6 11"
     id="polygon10" />
  <rect
     class="cls-2"
     x="5"
     y="11"
     width="1"
     height="1"
     id="rect11" />
  <rect
     class="cls-1"
     x="4"
     y="11"
     width="1"
     height="1"
     id="rect12" />
  <rect
     class="cls-1"
     x="12"
     y="10"
     width="1"
     height="1"
     id="rect13" />
  <rect
     class="cls-2"
     x="11"
     y="10"
     width="1"
     height="1"
     id="rect14" />
  <rect
     class="cls-3"
     x="10"
     y="10"
     width="1"
     height="1"
     id="rect15" />
  <rect
     class="cls-3"
     x="5"
     y="10"
     width="1"
     height="1"
     id="rect16" />
  <rect
     class="cls-2"
     x="4"
     y="10"
     width="1"
     height="1"
     id="rect17" />
  <rect
     class="cls-1"
     x="3"
     y="10"
     width="1"
     height="1"
     id="rect18" />
  <rect
     class="cls-1"
     x="13"
     y="9"
     width="1"
     height="1"
     id="rect19" />
  <rect
     class="cls-2"
     x="12"
     y="9"
     width="1"
     height="1"
     id="rect20" />
  <rect
     class="cls-3"
     x="11"
     y="9"
     width="1"
     height="1"
     id="rect21" />
  <rect
     class="cls-3"
     x="4"
     y="9"
     width="1"
     height="1"
     id="rect22" />
  <rect
     class="cls-2"
     x="3"
     y="9"
     width="1"
     height="1"
     id="rect23" />
  <rect
     class="cls-1"
     x="2"
     y="9"
     width="1"
     height="1"
     id="rect24" />
  <rect
     class="cls-1"
     x="14"
     y="8"
     width="1"
     height="1"
     id="rect25" />
  <rect
     class="cls-2"
     x="13"
     y="8"
     width="1"
     height="1"
     id="rect26" />
  <rect
     class="cls-3"
     x="12"
     y="8"
     width="1"
     height="1"
     id="rect27" />
  <rect
     class="cls-3"
     x="3"
     y="8"
     width="1"
     height="1"
     id="rect28" />
  <rect
     class="cls-2"
     x="2"
     y="8"
     width="1"
     height="1"
     id="rect29" />
  <rect
     class="cls-1"
     x="1"
     y="8"
     width="1"
     height="1"
     id="rect30" />
  <rect
     class="cls-3"
     x="13"
     y="7"
     width="1"
     height="1"
     id="rect31" />
  <rect
     class="cls-3"
     x="2"
     y="7"
     width="1"
     height="1"
     id="rect32" />
  <rect
     class="cls-2"
     x="1"
     y="4"
     width="1"
     height="4"
     id="rect33" />
  <rect
     class="cls-2"
     x="14"
     y="4"
     width="1"
     height="4"
     id="rect34" />
  <rect
     class="cls-1"
     y="4"
     width="1"
     height="4"
     id="rect35" />
  <rect
     class="cls-4"
     x="7"
     y="5"
     width="2"
     height="1"
     id="rect36" />
  <rect
     class="cls-1"
     x="15"
     y="4"
     width="1"
     height="4"
     id="rect37" />
  <rect
     class="cls-4"
     x="13"
     y="4"
     width="1"
     height="1"
     id="rect38" />
  <polygon
     class="cls-5"
     points="13 4 10 4 10 5 9 5 9 6 7 6 7 5 6 5 6 4 3 4 3 5 2 5 2 7 3 7 3 8 4 8 4 9 5 9 5 10 6 10 6 11 10 11 10 10 11 10 11 9 12 9 12 8 13 8 13 7 14 7 14 5 13 5 13 4"
     id="polygon38" />
  <rect
     class="cls-4"
     x="9"
     y="4"
     width="1"
     height="1"
     id="rect39" />
  <rect
     class="cls-2"
     x="7"
     y="4"
     width="2"
     height="1"
     id="rect40" />
  <rect
     class="cls-4"
     x="6"
     y="4"
     width="1"
     height="1"
     id="rect41" />
  <rect
     class="cls-4"
     x="2"
     y="4"
     width="1"
     height="1"
     id="rect42" />
  <rect
     class="cls-1"
     x="14"
     y="3"
     width="1"
     height="1"
     id="rect43" />
  <rect
     class="cls-2"
     x="13"
     y="3"
     width="1"
     height="1"
     id="rect44" />
  <rect
     class="cls-4"
     x="10"
     y="3"
     width="3"
     height="1"
     id="rect45" />
  <rect
     class="cls-2"
     x="9"
     y="3"
     width="1"
     height="1"
     id="rect46" />
  <rect
     class="cls-1"
     x="7"
     y="3"
     width="2"
     height="1"
     id="rect47" />
  <rect
     class="cls-2"
     x="6"
     y="3"
     width="1"
     height="1"
     id="rect48" />
  <rect
     class="cls-4"
     x="3"
     y="3"
     width="3"
     height="1"
     id="rect49" />
  <rect
     class="cls-2"
     x="2"
     y="3"
     width="1"
     height="1"
     id="rect50" />
  <rect
     class="cls-1"
     x="1"
     y="3"
     width="1"
     height="1"
     id="rect51" />
  <rect
     class="cls-1"
     x="13"
     y="2"
     width="1"
     height="1"
     id="rect52" />
  <rect
     class="cls-2"
     x="10"
     y="2"
     width="3"
     height="1"
     id="rect53" />
  <rect
     class="cls-1"
     x="9"
     y="2"
     width="1"
     height="1"
     id="rect54" />
  <rect
     class="cls-1"
     x="6"
     y="2"
     width="1"
     height="1"
     id="rect55" />
  <rect
     class="cls-2"
     x="3"
     y="2"
     width="3"
     height="1"
     id="rect56" />
  <rect
     class="cls-1"
     x="2"
     y="2"
     width="1"
     height="1"
     id="rect57" />
  <rect
     class="cls-1"
     x="10"
     y="1"
     width="3"
     height="1"
     id="rect58" />
  <rect
     class="cls-1"
     x="3"
     y="1"
     width="3"
     height="1"
     id="rect59" />
  <path
     style="fill:#0064e0;stroke-width:0.0196802"
     d="M 6.0123001,10.489545 V 9.99754 H 5.5104551 5.0086101 V 9.495695 8.9938499 H 4.5067651 4.00492 V 8.4920049 7.9901599 H 3.503075 3.00123 V 7.4883149 6.9864699 H 2.5092251 2.0172202 V 6.00246 5.0184502 H 2.5092251 3.00123 V 4.5166052 4.0147601 h 1.495695 1.4956949 v 0.5018451 0.501845 H 6.4944649 6.99631 V 5.5104551 6.00246 H 8 9.00369 V 5.5104551 5.0184502 H 9.5055351 10.00738 V 4.5166052 4.0147601 h 1.495695 1.495695 v 0.5018451 0.501845 h 0.492005 0.492005 V 6.00246 6.9864699 H 13.490775 12.99877 v 0.501845 0.501845 H 12.496925 11.99508 v 0.501845 0.501845 H 11.493235 10.99139 V 9.495695 9.99754 H 10.489545 9.9876999 v 0.492005 0.492005 H 8 6.0123001 Z"
     id="path59" />
  <path
     style="fill:#008cec;stroke-width:0.0196802"
     d="M 2.0172202,4.5067651 V 4.0147601 H 2.499385 2.9815498 V 4.5067651 4.99877 H 2.499385 2.0172202 Z"
     id="path60" />
  <path
     style="fill:#008cec;stroke-width:0.0196802"
     d="M 3.00123,3.503075 V 3.0110701 H 4.496925 5.9926199 V 3.503075 3.99508 H 4.496925 3.00123 Z"
     id="path61" />
  <path
     style="fill:#008cec;stroke-width:0.0196802"
     d="M 6.0123001,4.5067651 V 4.0147601 H 6.504305 6.99631 V 4.5067651 4.99877 H 6.504305 6.0123001 Z"
     id="path62" />
  <path
     style="fill:#008cec;stroke-width:0.0196802"
     d="M 7.0159902,5.500615 V 5.0184502 H 8 8.9840098 V 5.500615 5.9827798 H 8 7.0159902 Z"
     id="path63" />
  <path
     style="fill:#008cec;stroke-width:0.0196802"
     d="M 9.00369,4.5067651 V 4.0147601 H 9.495695 9.9876999 V 4.5067651 4.99877 H 9.495695 9.00369 Z"
     id="path64" />
  <path
     style="fill:#008cec;stroke-width:0.0196802"
     d="M 10.00738,3.503075 V 3.0110701 h 1.495695 1.495695 V 3.503075 3.99508 H 11.503075 10.00738 Z"
     id="path65" />
  <path
     style="fill:#0010cc;stroke-width:0.0196802"
     d="m 13.01845,4.5067651 v -0.492005 h 0.482165 0.482165 V 4.5067651 4.99877 H 13.500615 13.01845 Z"
     id="path66" />
  <path
     style="fill:#0010cc;stroke-width:0.0196802"
     d="M 2.0172202,7.498155 V 7.0061501 H 2.499385 2.9815498 V 7.498155 7.9901599 H 2.499385 2.0172202 Z"
     id="path67" />
  <path
     style="fill:#0024d0;stroke-width:0.0196802"
     d="M 3.00123,8.501845 V 8.0098401 h 0.4920049 0.492005 V 8.501845 8.9938499 H 3.4932349 3.00123 Z"
     id="path68" />
  <path
     style="fill:#0024d0;stroke-width:0.0196802"
     d="M 2.0172202,7.498155 V 7.0061501 H 2.499385 2.9815498 V 7.498155 7.9901599 H 2.499385 2.0172202 Z"
     id="path69" />
  <path
     style="fill:#0038d4;stroke-width:0.0196802"
     d="M 3.00123,8.501845 V 8.0098401 h 0.4920049 0.492005 V 8.501845 8.9938499 H 3.4932349 3.00123 Z"
     id="path70" />
  <path
     style="fill:#0038d4;stroke-width:0.0196802"
     d="M 2.0172202,7.498155 V 7.0061501 H 2.499385 2.9815498 V 7.498155 7.9901599 H 2.499385 2.0172202 Z"
     id="path71" />
  <path
     style="fill:#0038d4;stroke-width:0.0196802"
     d="M 4.00492,9.5055351 V 9.0135301 H 4.496925 4.9889299 V 9.5055351 9.99754 H 4.496925 4.00492 Z"
     id="path72" />
  <path
     style="fill:#0038d4;stroke-width:0.0196802"
     d="M 5.0086101,10.499385 V 10.01722 H 5.500615 5.9926199 v 0.482165 0.482165 H 5.500615 5.0086101 Z"
     id="path73" />
  <path
     style="fill:#0038d4;stroke-width:0.0196802"
     d="M 7.0159902,12.487085 V 11.98524 H 6.5141451 6.0123001 V 11.493235 11.00123 H 8 9.9876999 v 0.492005 0.492005 H 9.4858549 8.9840098 v 0.501845 0.501845 H 8 7.0159902 Z"
     id="path74" />
  <path
     style="fill:#0038d4;stroke-width:0.0196802"
     d="M 10.00738,10.499385 V 10.01722 h 0.492005 0.492005 v 0.482165 0.482165 H 10.499385 10.00738 Z"
     id="path75" />
  <path
     style="fill:#0038d4;stroke-width:0.0196802"
     d="m 11.01107,9.5055351 v -0.492005 h 0.492005 0.492005 V 9.5055351 9.99754 H 11.503075 11.01107 Z"
     id="path76" />
  <path
     style="fill:#0038d4;stroke-width:0.0196802"
     d="M 12.01476,8.501845 V 8.0098401 h 0.492005 0.492005 V 8.501845 8.9938499 H 12.506765 12.01476 Z"
     id="path77" />
  <path
     style="fill:#0048d8;stroke-width:0.0196802"
     d="M 13.01845,7.498155 V 7.0061501 h 0.482165 0.482165 V 7.498155 7.9901599 H 13.500615 13.01845 Z"
     id="path78" />
  <path
     style="fill:#0048d8;stroke-width:0.0196802"
     d="M 12.01476,8.501845 V 8.0098401 h 0.492005 0.492005 V 8.501845 8.9938499 H 12.506765 12.01476 Z"
     id="path79" />
  <path
     style="fill:#0048d8;stroke-width:0.0196802"
     d="m 11.01107,9.5055351 v -0.492005 h 0.492005 0.492005 V 9.5055351 9.99754 H 11.503075 11.01107 Z"
     id="path80" />
  <path
     style="fill:#0048d8;stroke-width:0.0196802"
     d="M 10.00738,10.499385 V 10.01722 h 0.492005 0.492005 v 0.482165 0.482165 H 10.499385 10.00738 Z"
     id="path81" />
  <path
     style="fill:#0048d8;stroke-width:0.0196802"
     d="M 7.0159902,12.487085 V 11.98524 H 6.5141451 6.0123001 V 11.493235 11.00123 H 8 9.9876999 v 0.492005 0.492005 H 9.4858549 8.9840098 v 0.501845 0.501845 H 8 7.0159902 Z"
     id="path82" />
  <path
     style="fill:#0048d8;stroke-width:0.0196802"
     d="M 5.0086101,10.499385 V 10.01722 H 5.500615 5.9926199 v 0.482165 0.482165 H 5.500615 5.0086101 Z"
     id="path83" />
  <path
     style="fill:#0048d8;stroke-width:0.0196802"
     d="M 4.00492,9.5055351 V 9.0135301 H 4.496925 4.9889299 V 9.5055351 9.99754 H 4.496925 4.00492 Z"
     id="path84" />
  <path
     style="fill:#0048d8;stroke-width:0.0196802"
     d="M 3.00123,8.501845 V 8.0098401 h 0.4920049 0.492005 V 8.501845 8.9938499 H 3.4932349 3.00123 Z"
     id="path85" />
  <path
     style="fill:#0048d8;stroke-width:0.0196802"
     d="M 2.0172202,7.498155 V 7.0061501 H 2.499385 2.9815498 V 7.498155 7.9901599 H 2.499385 2.0172202 Z"
     id="path86" />
  <path
     style="fill:#0048d8;stroke-width:0.0196802"
     d="m 13.01845,4.5067651 v -0.492005 h 0.482165 0.482165 V 4.5067651 4.99877 H 13.500615 13.01845 Z"
     id="path87" />
  <metadata
     id="metadata87">
    <rdf:RDF>
      <cc:Work
         rdf:about="">
        <dc:title>heart</dc:title>
      </cc:Work>
    </rdf:RDF>
  </metadata>
</svg>
